<svg version="1.1" xmlns="http://www.w3.org/2000/svg" xmlns:xlink="http://www.w3.org/1999/xlink" width="512.000000pt" height="512.000000pt" viewBox="0,0,256,256"><g fill="#ffffff" fill-rule="nonzero" stroke="none" stroke-width="1" stroke-linecap="butt" stroke-linejoin="miter" stroke-miterlimit="10" stroke-dasharray="" stroke-dashoffset="0" font-family="none" font-weight="none" font-size="none" text-anchor="none" style="mix-blend-mode: normal"><g transform="scale(0.5,0.5)"><g transform="translate(0,512) scale(0.1,-0.1)"><path d="M350,5091c-163,-52 -291,-188 -335,-358c-23,-87 -22,-1511 0,-1598c24,-92 64,-164 130,-230c73,-75 136,-111 236,-136c73,-19 111,-20 830,-17c745,3 755,3 811,25c120,45 232,142 283,243c55,109 55,106 55,916c0,702 -1,753 -19,814c-46,162 -172,292 -328,340c-63,19 -91,20 -837,19c-704,-1 -776,-2 -826,-18zM1930,4724c63,-38 60,-1 60,-791c0,-685 -1,-719 -19,-749c-40,-66 -14,-64 -791,-64c-778,0 -748,-2 -790,65c-20,32 -20,44 -18,760l3,727l37,34l38,34h726c654,0 729,-2 754,-16z"></path><path d="M3098,5087c-156,-53 -273,-177 -319,-337c-18,-61 -19,-112 -19,-814c0,-810 0,-807 55,-916c51,-101 163,-198 283,-243c56,-22 66,-22 811,-25c719,-3 757,-2 830,17c100,25 163,61 236,136c66,66 106,138 130,230c22,87 23,1511 0,1598c-45,173 -173,308 -339,358c-57,18 -110,19 -831,19l-770,-1zM4708,4706l37,-34l3,-727c2,-716 2,-728 -18,-760c-42,-67 -12,-65 -790,-65c-777,0 -751,-2 -791,64c-18,30 -19,64 -19,749c0,645 2,722 16,746c38,64 -3,60 797,61h727z"></path><path d="M375,2351c-95,-26 -159,-63 -230,-136c-66,-66 -106,-138 -130,-230c-22,-87 -23,-1511 0,-1598c45,-173 173,-308 339,-358c57,-18 111,-19 827,-19c740,0 769,1 832,20c156,48 282,178 328,340c18,61 19,112 19,814c0,810 0,807 -55,916c-51,101 -163,198 -283,243c-56,22 -65,22 -817,24c-715,2 -764,1 -830,-16zM1917,1983c20,-9 44,-30 54,-47c18,-30 19,-64 19,-749c0,-790 3,-753 -60,-791c-25,-14 -100,-16 -754,-16h-726l-38,34l-37,34l-3,727c-2,715 -2,728 18,760c42,67 9,65 788,65c637,0 707,-2 739,-17z"></path><path d="M3180,2363c-146,-24 -300,-135 -365,-263c-55,-109 -55,-105 -55,-916c0,-702 1,-753 19,-814c46,-162 172,-292 328,-340c63,-19 92,-20 832,-20c716,0 770,1 827,19c166,50 294,185 339,358c23,87 22,1511 0,1598c-24,92 -64,164 -130,230c-73,74 -136,111 -234,136c-70,18 -116,19 -805,18c-402,-1 -742,-4 -756,-6zM4676,1984c18,-9 43,-31 54,-49c20,-32 20,-44 18,-760l-3,-727l-37,-34l-38,-34h-726c-654,0 -729,2 -754,16c-63,38 -60,1 -60,791c0,683 1,719 19,749c40,66 11,64 789,64c626,0 708,-2 738,-16z"></path></g></g></g></svg>