<svg version="1.1" xmlns="http://www.w3.org/2000/svg" xmlns:xlink="http://www.w3.org/1999/xlink" width="512.000000pt" height="512.000000pt" viewBox="0,0,256,256"><g fill="#ffffff" fill-rule="nonzero" stroke="none" stroke-width="1" stroke-linecap="butt" stroke-linejoin="miter" stroke-miterlimit="10" stroke-dasharray="" stroke-dashoffset="0" font-family="none" font-weight="none" font-size="none" text-anchor="none" style="mix-blend-mode: normal"><g transform="translate(0.08276,0.08698) scale(0.5,0.5)"><g transform="translate(0,512) scale(0.1,-0.1)"><path d="M2430,4784c-102,-22 -195,-73 -291,-161c-47,-43 -496,-467 -997,-942c-839,-794 -914,-868 -942,-925c-43,-87 -50,-178 -20,-266c55,-163 185,-250 376,-250h84l2,-909c3,-901 3,-910 24,-937c11,-15 33,-37 48,-48l27,-21h1819h1819l27,21c15,11 37,33 48,48c21,27 21,36 24,937l2,909h84c177,0 290,66 359,210c28,57 32,75 32,150c0,76 -3,92 -33,152c-31,63 -81,113 -949,935c-504,477 -953,901 -997,941c-161,146 -347,199 -546,156zM2689,4444c62,-36 1951,-1822 1951,-1845c0,-33 -25,-38 -202,-41c-193,-3 -203,-6 -252,-72c-21,-27 -21,-36 -24,-937l-2,-909h-400h-399l-3,468c-4,499 -3,488 -58,634c-66,177 -261,372 -438,438c-119,45 -173,55 -302,55c-129,0 -183,-10 -302,-55c-177,-66 -372,-261 -438,-438c-55,-146 -54,-135 -58,-635l-3,-467h-399h-400l-2,909c-3,901 -3,910 -24,937c-49,66 -59,69 -252,72c-177,3 -202,8 -202,41c0,16 1879,1801 1932,1835c86,55 192,59 277,10zM2675,1905c172,-45 305,-179 350,-352c12,-46 15,-138 15,-485v-428h-480h-480v428c0,347 3,439 15,485c67,258 329,417 580,352z"></path></g></g></g></svg>