<svg version="1.1" xmlns="http://www.w3.org/2000/svg" xmlns:xlink="http://www.w3.org/1999/xlink" width="512.000000pt" height="512.000000pt" viewBox="0,0,256,256"><g fill="#ffffff" fill-rule="nonzero" stroke="none" stroke-width="1" stroke-linecap="butt" stroke-linejoin="miter" stroke-miterlimit="10" stroke-dasharray="" stroke-dashoffset="0" font-family="none" font-weight="none" font-size="none" text-anchor="none" style="mix-blend-mode: normal"><g transform="translate(-0.10018,-0.10202) scale(0.5,0.5)"><g transform="translate(0,512) scale(0.1,-0.1)"><path d="M2160,4350c-265,-37 -488,-119 -690,-255c-362,-243 -596,-595 -682,-1027c-32,-161 -32,-425 0,-586c32,-158 73,-278 142,-417c303,-605 954,-949 1622,-860c251,33 513,135 701,273l49,35l356,-356c370,-369 403,-396 481,-397c121,-1 222,100 221,221c-1,78 -28,111 -396,480l-356,356l62,94c283,431 338,978 145,1456c-203,504 -657,872 -1195,969c-101,19 -369,26 -460,14zM2546,3915c238,-42 439,-148 615,-324c104,-104 160,-181 219,-300c157,-314 161,-699 10,-1017c-109,-227 -322,-438 -557,-549c-284,-135 -649,-140 -949,-12c-238,101 -471,325 -584,561c-151,318 -147,703 10,1017c59,119 115,196 219,300c182,183 396,291 661,332c66,11 275,6 356,-8z"></path></g></g></g></svg>