<?xml version="1.0" encoding="UTF-8"?>
<svg version="1.1" xmlns="http://www.w3.org/2000/svg" width="459" height="347">
<path d="M0 0 C6.40823235 6.40823235 5.77444359 14.26766144 5.78321838 22.8374939 C5.79062535 24.37651586 5.79062535 24.37651586 5.79818195 25.94662917 C5.81353387 29.38287487 5.82191136 32.81910192 5.83032227 36.25537109 C5.8399026 38.71928064 5.84991277 41.18318854 5.86032104 43.64709473 C5.88175826 48.95084464 5.90020577 54.25459204 5.91592598 59.55836105 C5.9386598 67.22667436 5.96679771 74.89496038 5.99624526 82.5632505 C6.04387816 95.00520832 6.08715397 107.44717732 6.12768555 119.88916016 C6.16706238 131.97380441 6.20849384 144.05843875 6.25268555 156.14306641 C6.25540982 156.88823896 6.25813409 157.63341151 6.26094092 158.40116505 C6.27462076 162.13955918 6.28834096 165.87795317 6.30208123 169.61634707 C6.41597841 200.6192109 6.52273001 231.62209554 6.625 262.625 C9.81676092 259.46260418 13.0026081 256.29431241 16.1875 253.125 C17.08275391 252.238125 17.97800781 251.35125 18.90039062 250.4375 C23.52370989 245.83111597 28.01538591 241.18625265 32.23677063 236.20689392 C33.93050614 234.27687431 35.73783157 232.69751641 37.8125 231.1875 C38.44542969 230.71441406 39.07835937 230.24132812 39.73046875 229.75390625 C43.961063 227.23299545 48.80653011 226.99650393 53.625 227.625 C58.91639679 229.38879893 62.57296682 231.86382824 65.625 236.625 C66.62518367 239.62555102 66.82285609 241.79582941 66.875 244.9375 C66.91367187 246.32388672 66.91367187 246.32388672 66.953125 247.73828125 C66.2686109 253.76037554 63.15471721 257.44623059 58.875 261.5 C55.96554754 264.27221414 53.21083019 267.07425822 50.609375 270.1328125 C44.75409524 276.90248277 38.23891328 283.06521643 31.87695312 289.35253906 C23.30337162 297.82882407 23.30337162 297.82882407 15.2265625 306.77441406 C12.16304996 310.31426544 8.8995388 313.65645751 5.625 317 C4.95210938 317.71027344 4.27921875 318.42054688 3.5859375 319.15234375 C-1.32076065 324.14429342 -4.64008896 326.08619978 -11.640625 326.8828125 C-24.97372536 325.99043964 -34.29952229 312.69665394 -42.59570312 303.54248047 C-44.31691531 301.68759566 -46.08673881 299.90312988 -47.890625 298.12890625 C-50.24623314 295.80400497 -52.45054513 293.41674956 -54.59765625 290.8984375 C-57.52605564 287.50525171 -60.62220793 284.31328754 -63.80859375 281.1640625 C-64.29437897 280.68378601 -64.78016418 280.20350952 -65.28067017 279.7086792 C-67.2929223 277.72391224 -69.30863369 275.74275579 -71.3293457 273.76660156 C-90.2833619 255.2021565 -90.2833619 255.2021565 -91.375 246.625 C-91.42856028 240.54055228 -90.36179625 236.4091555 -86.375 231.625 C-81.88654832 227.55734066 -76.89580676 227.11288821 -71 227.25 C-58.70843298 229.00593815 -46.48393827 245.72810939 -38.96484375 254.81640625 C-37.45897236 256.5294737 -35.89180644 258.12948311 -34.27563477 259.73803711 C-33.73310562 260.27859238 -33.19057648 260.81914764 -32.63160706 261.37608337 C-32.21692673 261.78822586 -31.8022464 262.20036835 -31.375 262.625 C-31.37261165 261.33878754 -31.37022329 260.05257507 -31.36776257 258.72738647 C-31.31038737 228.18679373 -31.23764593 197.6462805 -31.14601372 167.10577279 C-31.13474572 163.34574339 -31.12360724 159.58571362 -31.11254883 155.82568359 C-31.11034514 155.07713777 -31.10814146 154.32859195 -31.105871 153.55736291 C-31.07051058 141.44127439 -31.04563937 129.32518593 -31.02465298 117.20906496 C-31.00288092 104.77432861 -30.96981715 92.33965915 -30.92629844 79.90497971 C-30.89980591 72.23376521 -30.88209289 64.56263405 -30.87565396 56.89137608 C-30.86977026 51.00639794 -30.84816679 45.12154297 -30.82072449 39.23662376 C-30.81193058 36.82438662 -30.80822447 34.41212473 -30.80999184 31.99987221 C-30.81164366 28.70501789 -30.79495212 25.4107418 -30.77372742 22.1159668 C-30.77857499 21.16264151 -30.78342257 20.20931622 -30.78841704 19.22710228 C-30.7125116 12.08118781 -29.70217493 6.369873 -24.9375 0.75 C-17.48522523 -5.42993517 -7.7494092 -6.10902331 0 0 Z " fill="#fff" transform="translate(96.375,11.375)"/>
<path d="M0 0 C0.9258917 -0.00438225 1.8517834 -0.00876451 2.80573243 -0.01327956 C5.89768669 -0.02659786 8.9896125 -0.03283058 12.08158875 -0.03897095 C14.30282213 -0.04687716 16.52405425 -0.05514643 18.74528503 -0.06375122 C26.02884201 -0.08990248 33.31240454 -0.10526798 40.59599304 -0.11953735 C43.10658967 -0.12489911 45.61718626 -0.13027663 48.12778282 -0.13566971 C58.5704777 -0.15728472 69.01317247 -0.17617254 79.45588398 -0.1872921 C82.16103431 -0.19022142 84.8661846 -0.19318315 87.57133484 -0.19619751 C88.24362278 -0.19694356 88.91591072 -0.19768961 89.60857102 -0.19845827 C100.50078048 -0.21111389 111.39282681 -0.24434636 122.28496001 -0.28599934 C133.48364373 -0.32847178 144.68226884 -0.35158555 155.88103837 -0.35721266 C162.16244158 -0.36086403 168.44356754 -0.37286409 174.72489357 -0.4053154 C180.6339109 -0.43540815 186.54248334 -0.44170322 192.45156097 -0.42993164 C194.61627296 -0.42971104 196.78100568 -0.43800483 198.94564629 -0.45558548 C220.85114111 -0.6237709 220.85114111 -0.6237709 227.60771179 5.15390015 C231.44166654 9.77517222 231.96654597 13.88829455 231.88896179 19.7749939 C231.2793325 24.93144168 228.88565205 28.76642215 225.42021179 32.52890015 C218.90196106 36.29500057 211.45329752 36.44852707 204.08880615 36.42132568 C202.71578131 36.42812235 202.71578131 36.42812235 201.31501859 36.43505633 C198.27068488 36.44764119 195.22653141 36.44608381 192.18217468 36.44442749 C189.99020154 36.45041631 187.7982305 36.45722267 185.60626221 36.46478271 C179.66828523 36.48241084 173.73036593 36.48713667 167.79236531 36.48841429 C164.07971491 36.4898379 160.36707908 36.49411141 156.6544323 36.49940872 C144.36264841 36.51694328 132.07089965 36.52625029 119.77910311 36.52474777 C119.11773196 36.52466786 118.45636082 36.52458795 117.77494812 36.52450562 C117.11276303 36.52442385 116.45057794 36.52434209 115.76832663 36.52425785 C105.03469374 36.52344479 94.30120111 36.54259269 83.56760878 36.57078235 C72.52704313 36.5995479 61.48654922 36.61295488 50.44594568 36.6115948 C44.25517039 36.61108544 38.06455405 36.61675495 31.87381172 36.6379509 C26.05179851 36.65734167 20.2300958 36.65745175 14.40807152 36.64291763 C12.27562124 36.64082972 10.14315148 36.64552932 8.01073456 36.65763855 C5.09132794 36.67313893 2.17298576 36.66375117 -0.74639893 36.64837646 C-1.58270385 36.65866359 -2.41900878 36.66895072 -3.28065628 36.67954957 C-9.96621062 36.60216744 -16.693229 35.06072752 -22.0538277 30.84821451 C-25.44710856 27.1865717 -27.03524736 23.05428575 -27.39228821 18.15390015 C-26.95560626 11.72375842 -24.97291586 7.62546524 -20.39228821 3.15390015 C-14.74719622 -0.79766425 -6.62928793 0.00385472 0 0 Z " fill="#fff" transform="translate(224.3922882080078,6.846099853515625)"/>
<path d="M0 0 C1.67966346 -0.00627461 3.35932557 -0.01292227 5.03898621 -0.01991272 C10.52606259 -0.04082488 16.01313886 -0.05129829 21.50024414 -0.0612793 C23.39606808 -0.0653307 25.29189188 -0.06944773 27.18771553 -0.07362938 C36.09161896 -0.09264736 44.99551423 -0.10688932 53.89943403 -0.11524135 C64.15444285 -0.1250221 74.40923632 -0.15137775 84.66416925 -0.19174224 C92.60924137 -0.22193594 100.55425181 -0.23671303 108.49938017 -0.24002236 C113.23701388 -0.24236767 117.97441661 -0.25126175 122.71198845 -0.27648354 C127.16824312 -0.29982862 131.62411565 -0.30397176 136.08041573 -0.29372215 C137.70975646 -0.29322837 139.33911647 -0.29950221 140.96839905 -0.3132782 C160.1214983 -0.46608576 160.1214983 -0.46608576 167.01696682 5.65978527 C171.33195987 10.55163419 171.75364625 15.04834134 171.69555664 21.3137207 C171.02185534 26.86229431 168.24098915 30.59090056 164.03540039 34.11450195 C158.27235296 36.39291606 151.88283271 36.30372636 145.75805664 36.32417297 C144.67821251 36.32968801 144.67821251 36.32968801 143.57655334 36.33531445 C141.18782819 36.34624175 138.79914667 36.35017617 136.41040039 36.35400391 C134.68823105 36.36027648 132.96606305 36.36692397 131.24389648 36.37391663 C125.61190719 36.394852 119.97991792 36.40530404 114.34790039 36.4152832 C112.4040526 36.41933366 110.46020494 36.42345067 108.51635742 36.42763329 C99.38820152 36.44665595 90.2600536 36.46089725 81.13188171 36.46924525 C70.60913297 36.47902938 60.08659391 36.50539179 49.56391907 36.54574615 C41.41762617 36.57591218 33.27139344 36.59071429 25.12504578 36.59402627 C20.26450261 36.59637466 15.40418424 36.60530909 10.54370117 36.63048744 C5.97338085 36.65378404 1.40343318 36.65799505 -3.16693115 36.64772606 C-4.84064983 36.6472311 -6.51438699 36.6535397 -8.18804932 36.6672821 C-25.61291982 36.80231806 -25.61291982 36.80231806 -32.15185547 30.80041981 C-35.6411639 26.99859153 -37.55741496 23.21805001 -37.71850586 18.04418945 C-37.39687172 12.29376087 -35.74721245 8.26101692 -31.65209961 4.17700195 C-22.94343722 -1.7607224 -10.16361951 0.01674795 0 0 Z " fill="#fff" transform="translate(234.652099609375,104.822998046875)"/>
<path d="M0 0 C1.07514359 -0.00571014 2.15028717 -0.01142029 3.25801086 -0.01730347 C4.42233643 -0.01842133 5.58666199 -0.01953918 6.78627014 -0.02069092 C8.02435928 -0.02565582 9.26244843 -0.03062073 10.53805542 -0.03573608 C13.92237548 -0.04780826 17.30663406 -0.0552927 20.69096828 -0.05974674 C22.80804567 -0.06268588 24.92511775 -0.06679215 27.04219246 -0.07125092 C33.67420485 -0.08490714 40.30620499 -0.09458418 46.93823045 -0.09845281 C54.57955651 -0.10293562 62.22070388 -0.1205016 69.86197561 -0.1494534 C75.77978279 -0.1710933 81.69753976 -0.18115824 87.61538607 -0.18249393 C91.14512907 -0.18353987 94.67470367 -0.1894032 98.20440483 -0.20731354 C102.14190785 -0.22690708 106.07918835 -0.22249604 110.01673889 -0.21600342 C111.76019089 -0.22982559 111.76019089 -0.22982559 113.53886414 -0.243927 C121.19879815 -0.20435298 126.32541913 0.41843026 132.27870178 5.57794189 C136.42557566 10.43570844 136.91273698 14.09525842 136.77870178 20.38653564 C136.15163963 25.91252089 133.55605277 28.97455479 129.77870178 33.01544189 C122.82292515 37.47763823 113.50800594 36.29330301 105.47987366 36.30157471 C103.72931419 36.30902206 103.72931419 36.30902206 101.94338989 36.31661987 C98.10723774 36.33114974 94.27112686 36.33802644 90.43495178 36.34356689 C88.43411806 36.3478674 86.43328434 36.35216846 84.43245077 36.3565414 C78.86444691 36.36831533 73.29645294 36.37587726 67.7284379 36.3793366 C60.55353116 36.38382069 53.3788146 36.40140028 46.20396566 36.43033719 C40.63595749 36.45200632 35.06800266 36.46204351 29.49995279 36.46337771 C26.1836807 36.46442119 22.86762816 36.47170007 19.5513916 36.48819733 C15.85162486 36.50529633 12.15232038 36.50336835 8.45252991 36.49688721 C6.8251162 36.51070938 6.8251162 36.51070938 5.16482544 36.52481079 C-4.41508997 36.47237526 -11.87463779 34.73328458 -18.93223572 28.02716064 C-22.33803904 24.01495819 -22.53379822 20.2975424 -22.53379822 15.20294189 C-21.74371749 10.31967183 -18.98702383 6.58558033 -15.53379822 3.14044189 C-10.86644454 0.16213056 -5.40392226 0.01729792 0 0 Z " fill="#fff" transform="translate(219.53379821777344,203.85955810546875)"/>
<path d="M0 0 C1.06030426 -0.0098568 1.06030426 -0.0098568 2.14202881 -0.01991272 C4.45292303 -0.03942717 6.76375313 -0.0512561 9.07470703 -0.0612793 C9.87129856 -0.06535482 10.66789009 -0.06943035 11.48862076 -0.07362938 C15.701721 -0.09439261 19.91478956 -0.10873854 24.12792969 -0.11816406 C28.45401715 -0.12923524 32.77959132 -0.16367116 37.10549736 -0.20333576 C40.45660292 -0.22959524 43.8075874 -0.2378639 47.15878677 -0.24144554 C48.75264089 -0.24628384 50.34649061 -0.25781813 51.94024277 -0.27648354 C69.28808182 -0.46710762 69.28808182 -0.46710762 76.45751953 4.17700195 C80.82627284 8.95184738 82.45751953 13.76200902 82.45751953 20.17700195 C81.1534362 25.89164356 78.57482385 31.09879907 73.58251953 34.42700195 C68.4626859 36.23400206 63.20890034 36.32937606 57.83496094 36.33813477 C57.09591019 36.34309967 56.35685944 36.34806458 55.59541321 36.35317993 C53.16662646 36.36770573 50.73790496 36.37458672 48.30908203 36.38012695 C47.05805254 36.38436802 47.05805254 36.38436802 45.78174973 36.38869476 C41.36995887 36.40364703 36.95820039 36.41290206 32.54638672 36.41723633 C28.00491245 36.42272157 23.46373788 36.446762 18.92235756 36.47520828 C15.41520333 36.49388854 11.90812063 36.49904308 8.40092087 36.5005722 C6.72728203 36.50358604 5.05364408 36.51157138 3.38005447 36.52475739 C1.03276353 36.54193481 -1.31380342 36.53990984 -3.66113281 36.53344727 C-4.6838604 36.54726944 -4.6838604 36.54726944 -5.72724915 36.56137085 C-11.50168594 36.51191235 -16.94401957 35.2036008 -21.56591797 31.59887695 C-25.69245489 26.49437464 -27.91593916 21.83730385 -27.41748047 15.11450195 C-26.45708317 9.4721678 -23.94372989 6.17404481 -19.29248047 2.86450195 C-13.77058008 -0.3748307 -6.20304975 0.04820819 0 0 Z " fill="#fff" transform="translate(224.54248046875,301.822998046875)"/>
</svg>
