<svg version="1.1" xmlns="http://www.w3.org/2000/svg" xmlns:xlink="http://www.w3.org/1999/xlink" width="512.000000pt" height="512.000000pt" viewBox="0,0,256,256"><g fill="#ffffff" fill-rule="nonzero" stroke="none" stroke-width="1" stroke-linecap="butt" stroke-linejoin="miter" stroke-miterlimit="10" stroke-dasharray="" stroke-dashoffset="0" font-family="none" font-weight="none" font-size="none" text-anchor="none" style="mix-blend-mode: normal"><g transform="translate(0.00339,-0.03552) scale(0.5,0.5)"><g transform="translate(0,512) scale(0.1,-0.1)"><path d="M1047,4186c-21,-8 -47,-22 -59,-33c-50,-45 -48,20 -48,-1368c0,-712 -3,-1295 -7,-1295c-5,0 -89,83 -188,184c-151,155 -187,187 -222,197c-114,32 -221,-69 -198,-187c7,-42 83,-126 457,-506c334,-340 291,-341 646,20c361,367 429,443 437,486c18,91 -41,178 -128,191c-77,12 -106,-8 -299,-208l-177,-182l-1,1270c0,724 -4,1287 -10,1309c-22,97 -116,153 -203,122z"></path><path d="M2358,4188c-44,-12 -93,-63 -107,-112c-17,-65 13,-141 72,-176c31,-19 60,-20 1198,-20h1166l33,23c48,32 72,69 77,119c7,58 -23,118 -74,149l-38,24l-1145,2c-736,1 -1158,-2 -1182,-9z"></path><path d="M2330,3191c-94,-50 -112,-170 -37,-249c17,-18 47,-37 67,-42c22,-6 369,-10 920,-10c842,0 887,1 926,19c61,28 89,73 89,143c0,63 -19,97 -75,136l-33,22h-911c-868,0 -913,-1 -946,-19z"></path><path d="M2345,2216c-124,-56 -133,-224 -15,-287c33,-18 71,-19 696,-19h661l34,23c100,67 106,192 13,263l-37,29l-661,2c-538,2 -667,0 -691,-11z"></path><path d="M2323,1220c-119,-72 -91,-253 45,-290c29,-7 164,-10 430,-8c366,3 389,4 421,23c51,30 74,67 78,127c5,65 -24,122 -77,149c-32,18 -65,19 -450,19c-394,0 -417,-1 -447,-20z"></path></g></g></g></svg>